<?xml version="1.0" standalone="no"?>
<!DOCTYPE svg PUBLIC "-//W3C//DTD SVG 20010904//EN"
 "http://www.w3.org/TR/2001/REC-SVG-20010904/DTD/svg10.dtd">
<svg version="1.0" xmlns="http://www.w3.org/2000/svg"
 width="592.000000pt" height="592.000000pt" viewBox="0 0 592.000000 592.000000"
 preserveAspectRatio="xMidYMid meet">
<metadata>
Created by potrace 1.14, written by Peter Selinger 2001-2017
</metadata>
<g transform="translate(0.000000,592.000000) scale(0.100000,-0.100000)"
fill="#000000" stroke="none">
<path d="M2951 5387 c-16 -17 -24 -18 -52 -8 -20 7 -36 8 -43 1 -8 -6 -33 -4
-72 6 -42 12 -83 14 -144 10 -108 -7 -257 -30 -290 -43 -14 -6 -53 -19 -88
-29 -37 -10 -69 -26 -78 -38 -20 -28 -18 -42 4 -24 9 9 35 24 57 34 22 10 44
20 49 22 5 3 6 0 2 -6 -11 -18 -110 -68 -181 -92 -88 -29 -101 -35 -97 -50 3
-14 -29 -70 -40 -70 -11 0 -10 8 2 31 21 39 -21 12 -44 -28 -5 -9 -2 -11 10
-6 15 6 14 1 -5 -25 -26 -37 -35 -41 -26 -11 5 15 4 19 -4 15 -6 -4 -11 -13
-11 -21 0 -8 -12 -26 -27 -41 -16 -15 -21 -23 -13 -19 9 5 7 0 -5 -14 -25 -29
-30 -13 -10 35 18 44 13 56 -10 21 -9 -14 -17 -45 -18 -71 -4 -54 -12 -67 -20
-29 -3 15 -13 37 -22 48 -15 19 -15 19 -13 -10 2 -24 -4 -36 -30 -57 -18 -15
-37 -28 -41 -30 -5 -2 -12 -14 -16 -28 l-7 -25 26 24 c46 43 29 0 -20 -51 -43
-45 -64 -58 -64 -40 0 4 -14 13 -31 19 -29 11 -30 14 -18 30 9 11 10 14 1 9
-20 -12 -43 -64 -32 -71 6 -3 10 -19 10 -35 0 -16 4 -31 9 -34 12 -8 13 -116
1 -116 -5 0 -11 10 -13 23 -4 19 -4 19 -6 -5 0 -15 -5 -30 -11 -33 -5 -3 -14
-20 -19 -38 l-9 -32 -1 33 c-1 17 -6 32 -12 32 -8 0 -10 -18 -6 -61 4 -35 3
-58 -2 -54 -19 11 -22 63 -7 106 9 24 16 52 16 63 0 15 3 16 15 6 12 -10 15
-9 15 5 0 9 9 19 20 22 11 3 20 6 20 8 0 11 -43 96 -47 92 -2 -3 0 -15 7 -26
9 -17 8 -22 -5 -27 -8 -3 -15 -17 -15 -30 0 -16 -4 -22 -14 -18 -8 3 -21 -5
-30 -18 -19 -27 -22 -142 -5 -202 9 -32 8 -41 -5 -55 -15 -14 -16 -13 -10 19
6 33 6 34 -9 15 l-16 -20 -1 20 c-1 19 -1 19 -15 1 -13 -17 -41 -14 -30 3 2 5
7 33 10 62 4 45 3 49 -5 24 -6 -16 -13 -65 -17 -108 -6 -83 -17 -105 -27 -57
-6 31 -54 82 -68 73 -5 -2 -6 -16 -3 -31 5 -27 5 -27 -5 -3 -6 14 -9 30 -6 38
3 7 1 15 -4 18 -10 6 -40 -85 -40 -121 0 -12 -6 -27 -14 -34 -8 -6 -13 -17
-10 -25 3 -7 -10 -25 -30 -40 -48 -36 -49 -74 -4 -118 l32 -32 7 30 c7 37 12
26 35 -88 9 -48 23 -92 29 -97 10 -8 9 3 -1 47 -7 31 -12 58 -10 60 4 5 24
-40 31 -70 3 -15 10 -25 15 -22 6 3 6 15 0 30 -16 41 4 36 22 -6 15 -36 15
-39 0 -39 -9 0 2 -9 24 -19 23 -11 44 -25 46 -32 4 -11 8 -11 19 -3 8 6 25 8
39 4 l25 -7 -29 -12 c-16 -6 -26 -14 -23 -17 3 -3 14 -1 24 4 12 7 54 7 118 2
55 -5 110 -9 123 -10 13 0 21 -4 18 -9 -3 -4 7 -8 22 -8 15 0 44 -4 64 -8 54
-11 88 0 85 27 -1 15 4 23 18 26 11 3 32 13 47 23 31 22 45 25 29 5 -10 -12
-6 -14 23 -12 20 2 36 -1 36 -6 0 -5 9 -6 20 -3 11 4 20 2 20 -4 0 -15 27 -14
33 2 3 6 6 2 6 -11 1 -22 4 -23 56 -12 24 5 34 -1 28 -17 -5 -14 -3 -13 14 3
15 14 19 28 16 58 -7 64 36 76 87 25 27 -28 34 -30 54 -20 12 7 36 13 54 13
18 1 32 4 32 8 0 17 62 32 103 26 38 -5 40 -5 23 8 -10 8 -16 20 -14 27 3 8 9
6 21 -5 9 -10 17 -15 17 -11 0 7 59 -25 78 -43 24 -22 50 -33 54 -22 5 17 139
-5 209 -35 35 -15 79 -32 97 -39 17 -6 32 -14 32 -18 0 -5 5 -8 12 -8 6 0 20
-7 30 -17 10 -9 21 -13 26 -9 4 4 -2 14 -12 22 -11 8 -14 14 -8 14 7 0 21 -9
32 -20 12 -12 25 -18 30 -15 5 3 11 1 15 -5 12 -19 26 -10 20 11 -10 31 11 15
32 -24 24 -47 27 -18 4 44 -28 73 -20 72 14 -2 22 -51 29 -59 37 -45 7 12 4
29 -10 57 -11 21 -16 41 -12 44 11 7 24 -12 54 -75 25 -52 26 -49 11 28 -4 20
1 14 20 -20 14 -27 32 -48 41 -48 8 0 17 -7 20 -15 4 -8 12 -15 20 -15 8 0 14
-4 14 -9 0 -6 11 -22 24 -36 33 -36 51 -85 30 -85 -8 0 -17 7 -20 15 -7 17
-34 21 -34 5 0 -5 4 -10 10 -10 8 0 19 -40 25 -89 3 -28 17 -51 31 -51 10 0
13 11 10 42 l-4 41 29 -44 c26 -41 29 -56 33 -141 2 -53 6 -101 10 -107 10
-16 26 -14 26 4 0 9 6 12 15 9 12 -5 15 5 16 52 l1 59 12 -63 c6 -35 15 -60
19 -55 5 4 14 8 20 8 7 0 11 9 9 20 -6 47 33 -46 54 -129 25 -100 42 -129 39
-66 -1 22 2 43 7 46 12 8 -2 156 -17 174 -7 8 -15 24 -18 35 -3 13 -7 6 -12
-23 -4 -23 -9 -41 -12 -39 -10 11 -8 111 4 144 7 21 14 85 15 143 l2 105 5
-104 6 -104 29 41 c30 44 46 53 46 26 0 -14 3 -14 15 -4 8 7 15 18 15 25 0 7
8 23 18 36 17 20 19 21 17 3 0 -11 -5 -26 -10 -34 -22 -39 41 31 71 77 55 86
161 123 258 90 63 -21 58 -7 -9 28 -30 16 -53 31 -51 33 2 2 22 -6 45 -17 49
-26 54 -26 42 -3 -6 11 -15 52 -20 93 -24 172 -33 224 -43 230 -6 4 -8 14 -5
24 4 9 3 14 -2 11 -5 -3 -13 11 -19 32 -10 37 -67 204 -79 232 -3 8 -6 18 -5
22 1 4 -9 27 -21 50 -32 60 -41 76 -68 132 -13 26 -37 60 -53 75 -59 55 -67
64 -54 72 8 5 3 18 -18 44 -16 21 -33 44 -39 53 -5 9 -29 45 -52 81 -71 113
-233 255 -355 313 -42 19 -64 35 -56 39 15 10 -16 59 -38 59 -9 0 -44 12 -78
26 -33 14 -72 31 -86 36 -14 5 -43 19 -65 31 -62 32 -120 38 -144 14z m-413
-60 c-2 -12 -15 -24 -33 -30 -16 -6 -57 -28 -90 -50 l-60 -40 30 33 c20 22 24
29 10 21 -33 -18 -51 -35 -64 -58 -16 -31 -29 -29 -23 2 7 38 59 78 93 71 16
-3 34 1 45 10 17 14 17 15 2 10 -10 -3 -18 -1 -18 4 0 6 6 10 13 11 9 0 9 2
-1 6 -16 6 -6 24 11 18 7 -3 23 4 37 14 29 23 53 11 48 -22z m-194 -28 c-10
-11 -27 -25 -37 -31 -16 -8 -17 -7 -8 11 11 20 38 40 55 41 5 0 1 -9 -10 -21z
m366 -4 c-7 -8 -9 -15 -4 -15 5 -1 -6 -14 -25 -30 -39 -33 -55 -32 -25 1 15
18 11 17 -24 -6 -23 -15 -45 -25 -48 -22 -3 3 14 18 38 33 23 15 52 33 63 40
27 18 40 17 25 -1z m-190 -20 c0 -3 -5 -14 -12 -24 -9 -15 -9 -29 2 -63 19
-61 20 -61 41 -42 10 9 19 12 19 7 0 -6 -7 -16 -16 -24 -21 -18 -40 -57 -48
-102 -7 -36 -29 -58 -43 -43 -4 4 5 31 20 61 15 30 22 55 17 55 -5 0 -7 15 -5
33 3 17 2 25 -1 17 -10 -20 -46 -49 -63 -50 -10 0 -8 7 7 23 28 30 28 46 0 21
-12 -10 -18 -13 -13 -5 12 20 13 81 2 81 -17 0 17 33 48 46 33 14 45 17 45 9z
m505 -40 l50 -14 -50 4 c-27 3 -70 5 -95 6 -35 0 -40 2 -25 9 29 13 64 11 120
-5z m-861 -51 c23 -9 20 -23 -4 -17 -11 3 -20 9 -20 14 0 11 3 11 24 3z m866
-9 c0 -2 -20 -10 -45 -18 -25 -9 -45 -14 -45 -12 0 10 65 42 77 38 7 -3 13 -6
13 -8z m-361 -71 c-28 -42 -56 -93 -61 -113 -6 -20 -17 -45 -25 -56 -14 -19
-14 -18 -8 15 15 71 111 226 143 230 1 0 -21 -34 -49 -76z m-554 6 c-30 -33
-6 -23 36 15 22 19 45 35 51 35 7 0 3 -7 -10 -15 -12 -9 -36 -37 -53 -62 -29
-41 -31 -49 -21 -76 14 -36 0 -67 -28 -67 -24 0 -26 23 -4 44 8 9 14 22 12 28
-3 8 -13 2 -28 -15 -13 -14 -27 -24 -32 -21 -6 4 -27 -10 -48 -31 -26 -25 -42
-34 -52 -29 -16 11 -20 44 -4 44 6 0 49 36 94 79 72 68 83 82 77 103 -7 22 -6
22 11 6 17 -17 17 -18 -1 -38z m790 -3 c-46 -33 -85 -74 -85 -88 0 -10 3 -10
12 -1 7 7 16 12 20 12 15 0 8 -19 -17 -47 -19 -22 -24 -23 -18 -8 6 19 5 19
-18 -1 -13 -12 -35 -27 -48 -34 -22 -12 -21 -8 12 39 20 28 37 55 37 59 0 4 6
14 12 20 7 7 13 20 13 30 0 12 14 21 45 29 64 16 69 15 35 -10z m-535 -12 c0
-8 -2 -15 -4 -15 -2 0 -6 7 -10 15 -3 8 -1 15 4 15 6 0 10 -7 10 -15z m-140
-37 c-6 -20 -17 -41 -25 -48 -14 -11 -14 -10 -5 14 5 14 15 38 20 52 15 38 21
25 10 -18z m456 3 c-9 -16 -16 -35 -16 -41 0 -6 -10 -34 -22 -62 -20 -46 -22
-48 -30 -28 -12 32 6 89 43 133 36 44 48 43 25 -2z m-236 22 c-1 -5 -12 -21
-25 -38 -28 -34 -35 -14 -9 23 15 21 34 30 34 15z m-93 -33 c17 -34 16 -93 -2
-137 l-16 -37 -18 28 c-19 28 -19 28 -30 8 -6 -12 -23 -27 -38 -34 -18 -9 -32
-28 -42 -58 -20 -58 -26 -30 -7 33 8 26 13 47 11 47 -2 0 -22 -16 -45 -35 -53
-44 -74 -46 -24 -3 44 38 103 117 133 176 17 34 27 43 44 40 12 -2 27 -14 34
-28z m114 13 c-19 -33 -41 -57 -46 -51 -3 3 6 20 20 37 29 34 41 41 26 14z
m-491 -36 c0 -17 -38 -53 -46 -44 -7 7 25 57 37 57 5 0 9 -6 9 -13z m200 -10
c0 -2 -10 -12 -22 -23 l-23 -19 19 23 c18 21 26 27 26 19z m730 -57 c-29 -33
-57 -63 -64 -67 -12 -7 18 29 73 90 55 58 49 43 -9 -23z m-990 41 c0 -8 -106
-141 -132 -166 -18 -17 54 88 91 133 37 44 41 47 41 33z m510 -117 c-7 -24
-17 -47 -23 -51 -7 -4 -8 0 -4 12 4 10 13 38 19 64 6 25 13 40 16 32 2 -7 -1
-33 -8 -57z m75 -3 c-7 -31 -77 -171 -85 -171 -8 0 -4 41 5 65 5 11 18 36 30
55 12 19 25 48 29 63 4 16 11 25 17 21 6 -3 8 -18 4 -33z m-431 -73 c-17 -13
-65 -59 -105 -104 -71 -78 -98 -100 -65 -52 20 28 21 50 1 24 -8 -11 -15 -15
-15 -9 0 14 25 35 33 27 3 -3 28 18 55 46 50 53 99 90 117 90 5 0 -4 -10 -21
-22z m296 -22 c-12 -20 -28 -36 -36 -36 -20 0 -18 3 18 44 39 44 48 40 18 -8z
m448 33 c-2 -5 -28 -24 -58 -41 l-55 -30 35 31 35 30 -40 -12 c-22 -6 -45 -18
-52 -27 -11 -13 -12 -12 -13 6 0 17 9 24 43 32 89 24 110 26 105 11z m-839
-46 c-6 -7 -19 -13 -28 -13 -14 1 -14 2 2 14 10 8 14 17 9 20 -13 8 -35 -20
-71 -91 -17 -35 -33 -63 -36 -63 -9 0 55 136 75 159 20 23 21 23 40 6 15 -14
17 -21 9 -32z m1031 32 c-7 -9 -15 -13 -19 -10 -3 3 1 10 9 15 21 14 24 12 10
-5z m-413 -57 l-6 -52 30 35 c17 19 27 27 23 19 -11 -23 -95 -150 -99 -150 -2
0 0 14 5 31 5 18 12 55 15 83 7 65 14 86 27 86 7 0 9 -18 5 -52z m259 23 l-15
-28 46 5 c33 3 44 2 39 -7 -4 -6 -16 -11 -26 -11 -29 0 -71 -21 -120 -59 -24
-20 -65 -49 -90 -65 l-45 -28 25 27 c14 15 38 34 54 42 22 12 26 17 15 24 -12
7 -12 9 1 10 8 1 20 1 26 0 11 -1 64 61 64 74 0 4 -12 -1 -27 -10 l-28 -18 24
27 c17 17 27 22 32 15 4 -8 11 -4 18 10 7 11 14 21 17 21 2 0 -2 -13 -10 -29z
m-239 -3 c-3 -8 -6 -5 -6 6 -1 11 2 17 5 13 3 -3 4 -12 1 -19z m43 12 c0 -5
-5 -10 -11 -10 -5 0 -7 5 -4 10 3 6 8 10 11 10 2 0 4 -4 4 -10z m1131 -7 c13
-16 12 -17 -3 -4 -17 13 -22 21 -14 21 2 0 10 -8 17 -17z m-2207 -32 c-11 -44
-17 -46 -29 -10 -15 41 -12 49 15 42 16 -4 19 -11 14 -32z m966 22 c0 -4 -16
-21 -35 -39 -39 -36 -43 -35 -18 4 23 36 53 56 53 35z m430 -7 c0 -21 20 -30
33 -17 6 6 16 11 22 11 17 -1 -28 -30 -46 -30 -10 0 -19 10 -21 25 -3 14 -1
25 3 25 5 0 9 -6 9 -14z m130 -5 c0 -5 -7 -11 -14 -14 -10 -4 -13 -1 -9 9 6
15 23 19 23 5z m-1480 -21 c-8 -5 -17 -7 -19 -4 -3 3 1 9 9 14 8 5 17 7 19 4
3 -3 -1 -9 -9 -14z m34 -27 c-41 -56 -44 -59 -44 -40 0 17 59 91 67 83 3 -3
-8 -22 -23 -43z m1501 37 c3 -5 2 -10 -4 -10 -5 0 -13 5 -16 10 -3 6 -2 10 4
10 5 0 13 -4 16 -10z m-965 -7 c0 -26 -101 -141 -145 -166 -8 -4 -24 -26 -35
-48 -23 -44 -45 -55 -30 -14 17 45 42 75 81 97 21 12 42 31 45 42 12 38 54 96
69 96 8 0 15 -3 15 -7z m724 -29 c-22 -6 -56 -19 -75 -28 l-34 -17 25 20 c30
24 101 51 115 43 5 -4 -9 -11 -31 -18z m123 0 c-3 -3 -12 -4 -19 -1 -8 3 -5 6
6 6 11 1 17 -2 13 -5z m-1350 -42 c-10 -10 -17 -23 -17 -29 0 -14 -29 -38 -36
-30 -4 3 8 24 26 47 18 23 35 38 38 36 3 -3 -2 -14 -11 -24z m838 -29 c-9 -37
-18 -20 -9 19 4 18 9 27 11 20 3 -7 2 -24 -2 -39z m-190 7 c-19 -21 -126 -83
-132 -76 -3 3 137 95 146 96 2 0 -4 -9 -14 -20z m115 -16 c-10 -25 -8 -31 11
-47 12 -9 20 -19 18 -22 -3 -2 -18 6 -33 19 l-29 23 18 31 c23 38 30 36 15 -4z
m345 26 c-3 -5 -12 -10 -18 -10 -7 0 -6 4 3 10 19 12 23 12 15 0z m381 -54
c-10 -18 -35 -43 -56 -55 -51 -29 -63 -27 -18 4 20 13 46 40 58 60 27 44 41
37 16 -9z m-816 4 c0 -5 -5 -10 -11 -10 -5 0 -7 5 -4 10 3 6 8 10 11 10 2 0 4
-4 4 -10z m157 -32 c-3 -8 -6 -5 -6 6 -1 11 2 17 5 13 3 -3 4 -12 1 -19z m12
-36 c6 -12 6 -23 -1 -33 -8 -11 -9 -11 -4 3 3 10 1 20 -4 23 -10 6 -14 25 -5
25 2 0 9 -8 14 -18z m491 10 c0 -5 -7 -17 -15 -28 -14 -18 -14 -17 -4 9 12 27
19 34 19 19z m-1070 -20 c-14 -9 -51 -44 -84 -77 l-58 -60 47 64 c27 35 62 69
79 77 41 18 46 17 16 -4z m-18 -79 c-26 -36 -71 -78 -77 -72 -2 3 16 29 42 58
47 54 70 63 35 14z m-336 12 c14 -3 23 -11 21 -18 -2 -7 -11 -10 -18 -8 -8 2
-34 9 -59 16 -25 7 -38 14 -30 17 14 6 30 4 86 -7z m64 11 c0 -2 -8 -10 -17
-17 -16 -13 -17 -12 -4 4 13 16 21 21 21 13z m330 -17 c0 -5 -4 -8 -9 -5 -5 4
-24 -12 -41 -34 -18 -23 -35 -39 -38 -36 -2 3 10 23 29 45 33 38 59 52 59 30z
m-423 -45 c18 -14 33 -32 33 -40 0 -11 -4 -10 -18 4 -9 9 -31 27 -47 39 -17
12 -24 23 -16 23 8 0 29 -11 48 -26z m1163 16 c0 -9 -61 -42 -67 -36 -1 1 0
12 4 24 4 16 13 22 34 22 16 0 29 -5 29 -10z m-789 -43 c-13 -12 -20 -15 -16
-7 14 26 28 41 33 35 3 -3 -5 -16 -17 -28z m679 18 c-7 -8 -17 -15 -22 -15 -6
0 -5 7 2 15 7 8 17 15 22 15 6 0 5 -7 -2 -15z m140 -10 c-13 -14 -26 -22 -29
-19 -3 3 5 14 18 25 33 27 39 24 11 -6z m-1391 -67 c-7 -12 -12 -26 -11 -30 1
-5 -5 -8 -13 -8 -20 0 -19 5 7 40 25 34 36 33 17 -2z m911 27 c0 -6 -50 -31
-80 -39 -14 -4 -5 5 20 18 45 25 60 30 60 21z m-155 -60 l6 -30 -15 25 c-17
28 -22 60 -7 45 5 -6 12 -23 16 -40z m-880 -15 c8 -16 15 -32 15 -37 0 -10
-25 27 -33 50 -10 27 1 20 18 -13z m185 15 c-7 -9 -15 -13 -19 -10 -3 3 1 10
9 15 21 14 24 12 10 -5z m-80 -72 c11 -25 23 -133 14 -133 -3 0 -27 82 -38
133 -4 15 -3 27 2 27 5 0 15 -12 22 -27z m960 -47 c0 -2 -29 -20 -65 -40 -36
-20 -78 -43 -93 -52 -26 -15 -25 -15 3 10 45 38 155 97 155 82z m-81 -9 c-2
-2 -20 -11 -39 -20 l-35 -17 24 20 c13 11 30 20 39 20 8 0 13 -2 11 -3z m-738
-62 c16 4 20 3 11 -3 -10 -7 -7 -16 17 -40 30 -30 41 -49 21 -37 -10 6 -80
-42 -80 -55 0 -4 40 -5 89 -2 48 2 95 1 104 -4 10 -6 -28 -10 -101 -11 -64 -2
-120 -7 -126 -13 -5 -5 -15 -10 -20 -10 -6 0 7 17 27 38 21 21 34 41 31 45 -4
4 0 9 9 13 14 5 14 9 3 27 -16 26 -33 80 -18 58 6 -8 18 -11 33 -6z m-131
-124 c0 -21 -6 -43 -12 -49 -10 -8 -12 0 -10 39 5 58 22 66 22 10z m1114 -9
c2 -4 -11 -6 -30 -4 -19 2 -34 6 -34 8 0 8 59 4 64 -4z m-1076 -14 c-2 -6 -10
-14 -16 -16 -7 -2 -10 2 -6 12 7 18 28 22 22 4z m1394 -6 c4 -4 -12 -8 -35 -9
-23 0 -51 -3 -61 -5 -10 -1 -21 2 -23 9 -7 20 99 25 119 5z m-1233 -38 c-13
-7 -33 -13 -44 -14 -14 0 -10 5 15 18 39 20 66 17 29 -4z m-104 -14 c-39 -10
-138 -12 -132 -2 3 4 40 8 84 9 55 1 69 -1 48 -7z m1725 -31 c16 -30 8 -31
-13 -3 -10 13 -13 24 -8 24 6 0 15 -9 21 -21z m-1540 -31 c10 -6 -1 -6 -30 -2
-25 3 -49 10 -54 15 -12 11 64 -1 84 -13z m1410 -43 c16 -19 1 -19 -24 0 -16
12 -17 15 -4 15 8 0 21 -7 28 -15z m687 -137 c-3 -8 -6 -5 -6 6 -1 11 2 17 5
13 3 -3 4 -12 1 -19z m-80 -60 c-3 -8 -6 -5 -6 6 -1 11 2 17 5 13 3 -3 4 -12
1 -19z m60 -150 c-2 -13 -4 -3 -4 22 0 25 2 35 4 23 2 -13 2 -33 0 -45z"/>
<path d="M2275 4983 l-28 -38 36 34 c39 37 42 41 28 41 -5 0 -21 -17 -36 -37z"/>
<path d="M2285 4953 c-19 -27 -34 -52 -34 -58 0 -5 10 3 22 20 12 16 32 40 45
52 24 26 27 33 12 33 -5 0 -25 -21 -45 -47z"/>
<path d="M2335 4929 c-4 -6 -5 -12 -2 -15 2 -3 7 2 10 11 7 17 1 20 -8 4z"/>
<path d="M2079 5243 c-13 -17 -13 -17 6 -3 11 8 22 16 24 17 2 2 0 3 -6 3 -6
0 -17 -8 -24 -17z"/>
<path d="M1880 5095 c-7 -9 -11 -17 -8 -20 2 -2 12 4 21 15 9 11 13 20 8 20
-5 0 -14 -7 -21 -15z"/>
<path d="M1632 4819 c-7 -11 -11 -23 -9 -25 7 -7 29 24 25 36 -2 6 -9 1 -16
-11z"/>
<path d="M1377 4575 c-4 -8 -2 -17 3 -20 6 -4 10 3 10 14 0 25 -6 27 -13 6z"/>
<path d="M1310 4550 c0 -11 2 -20 4 -20 2 0 6 9 9 20 3 11 1 20 -4 20 -5 0 -9
-9 -9 -20z"/>
<path d="M1280 4504 c0 -21 4 -33 10 -29 6 3 10 19 10 36 0 16 -4 29 -10 29
-5 0 -10 -16 -10 -36z"/>
<path d="M1275 4449 c-4 -6 -5 -12 -2 -15 2 -3 7 2 10 11 7 17 1 20 -8 4z"/>
<path d="M1235 3825 c3 -22 11 -62 16 -88 5 -26 9 -65 9 -85 0 -20 8 -46 16
-57 15 -19 15 -18 10 15 -4 19 -8 58 -11 85 l-4 50 9 -40 c6 -22 14 -62 18
-88 4 -26 10 -48 15 -47 4 0 13 0 20 0 8 0 13 18 14 53 5 119 12 182 22 180 6
-2 11 1 11 7 0 6 -19 7 -46 4 -41 -5 -50 -2 -76 23 l-30 28 7 -40z m35 -35 c0
-11 -2 -20 -4 -20 -2 0 -6 9 -9 20 -3 11 -1 20 4 20 5 0 9 -9 9 -20z"/>
<path d="M2086 3771 c-3 -4 -27 -11 -54 -14 -27 -3 -75 -18 -108 -32 -36 -17
-81 -28 -114 -30 -30 -1 -75 -7 -100 -13 -25 -5 -68 -9 -97 -9 l-52 2 19 -29
c20 -33 42 -38 121 -26 l54 8 -67 1 c-78 1 -106 21 -30 21 27 0 78 3 113 7 61
6 63 6 49 -12 -14 -17 -13 -18 3 -12 10 4 28 7 38 7 11 0 17 5 14 10 -3 6 1
10 10 10 9 0 14 4 11 9 -4 5 7 12 24 16 17 4 28 10 25 15 -7 12 42 29 135 45
47 8 87 15 90 15 3 0 -2 5 -10 10 -19 12 -67 13 -74 1z"/>
<path d="M2330 3659 c-19 -4 -74 -15 -121 -24 -48 -8 -153 -38 -235 -65 -82
-28 -176 -57 -208 -66 -74 -19 -148 -56 -124 -62 9 -2 27 2 39 9 12 6 50 15
83 19 39 5 109 28 191 63 127 54 156 63 358 108 53 12 97 23 97 25 0 6 -42 3
-80 -7z"/>
<path d="M4149 3650 c66 -16 105 -60 116 -131 5 -33 5 -33 -10 6 -20 51 -31
61 -78 69 l-39 7 19 -25 c10 -14 21 -26 26 -26 4 0 7 -15 7 -32 0 -18 11 -51
25 -73 72 -120 81 -151 65 -252 -13 -85 -50 -143 -100 -157 -19 -5 -37 -11
-39 -12 -9 -7 23 -34 40 -34 27 0 32 -16 13 -44 -16 -26 -25 -84 -14 -91 10
-6 87 52 94 71 3 8 10 13 14 10 13 -8 31 64 26 99 -3 17 6 85 19 152 l24 123
-32 144 c-17 80 -37 152 -45 161 -21 25 -78 45 -124 44 l-41 -1 34 -8z"/>
<path d="M1364 3617 c-1 -28 0 -29 12 -12 17 23 18 32 2 38 -9 3 -13 -6 -14
-26z"/>
<path d="M1768 3633 c6 -2 18 -2 25 0 6 3 1 5 -13 5 -14 0 -19 -2 -12 -5z"/>
<path d="M2602 3543 c-63 -22 -47 -24 33 -3 43 12 58 19 40 19 -16 0 -49 -7
-73 -16z"/>
<path d="M1309 3518 c4 -28 6 -29 9 -9 2 13 0 27 -5 32 -6 6 -7 -3 -4 -23z"/>
<path d="M3962 3474 c-21 -71 -16 -98 21 -116 30 -14 94 -62 145 -108 28 -27
29 -56 1 -56 -13 0 -50 29 -97 78 -77 79 -100 87 -87 30 8 -37 36 -62 105 -92
62 -27 87 -49 68 -61 -17 -11 -102 35 -154 83 l-44 40 -10 -27 c-13 -34 -13
-75 0 -75 5 0 12 11 16 25 6 23 7 23 29 9 17 -11 25 -30 32 -76 9 -56 8 -67
-13 -113 -13 -27 -24 -55 -24 -62 0 -32 23 -115 37 -128 13 -13 18 -13 44 2
33 19 37 40 12 58 -9 7 -16 25 -15 44 0 17 -2 31 -4 31 -13 0 -35 -31 -29 -40
3 -5 2 -10 -4 -10 -5 0 -12 4 -16 10 -7 11 30 50 48 50 19 0 59 58 51 73 -4 6
-4 9 1 5 9 -9 133 75 154 104 15 23 19 80 7 140 -5 27 -15 42 -35 52 -26 14
-27 14 -27 -7 1 -34 -43 -36 -69 -4 -14 18 -38 30 -79 39 -102 23 -83 47 43
53 41 2 79 9 84 14 16 16 -59 43 -119 42 -42 0 -53 3 -56 17 -2 10 -9 -1 -16
-24z m148 -394 c-20 -13 -33 -13 -25 0 3 6 14 10 23 10 15 0 15 -2 2 -10z"/>
<path d="M1435 3470 c44 -20 55 -19 35 5 -7 8 -27 15 -44 15 l-31 -1 40 -19z"/>
<path d="M2743 3374 c-96 -14 -173 -44 -173 -68 0 -9 -25 -24 -57 -36 -32 -11
-74 -28 -93 -37 -19 -9 -70 -20 -113 -24 -43 -4 -86 -13 -95 -20 -46 -35 -72
-65 -72 -83 0 -12 -9 -27 -20 -34 -11 -7 -20 -20 -20 -30 0 -9 9 -23 20 -30
11 -7 20 -20 20 -30 0 -14 2 -15 10 -2 5 8 10 30 10 49 0 30 2 33 25 29 23 -5
25 -2 25 31 0 21 9 46 21 61 l20 25 -15 -32 c-17 -34 -20 -105 -6 -138 7 -17
9 -16 9 10 1 17 6 37 11 45 7 11 10 7 10 -17 l0 -32 44 30 c74 49 197 106 279
128 43 12 104 32 135 45 76 31 180 49 275 47 71 -2 95 7 67 24 -6 4 -8 11 -4
16 3 5 2 8 -3 7 -4 -2 -8 0 -8 4 0 4 -25 23 -55 43 -62 40 -90 42 -247 19z
m207 -20 c0 -2 -9 0 -20 6 -11 6 -20 13 -20 16 0 2 9 0 20 -6 11 -6 20 -13 20
-16z m-778 -254 c3 -16 1 -30 -4 -30 -4 0 -8 14 -8 30 0 17 2 30 4 30 2 0 6
-13 8 -30z"/>
<path d="M3484 3360 c4 -39 23 -61 31 -37 11 26 1 62 -17 65 -14 3 -17 -3 -14
-28z"/>
<path d="M4380 3313 c0 -53 -37 -283 -56 -346 -38 -126 -59 -163 -132 -223
-59 -48 -71 -54 -112 -54 -25 0 -55 7 -67 15 -13 9 -24 11 -28 6 -5 -9 -23
-128 -30 -196 -3 -36 4 -52 16 -34 5 8 9 -34 9 -103 0 -72 -4 -118 -10 -118
-6 0 -10 34 -10 81 0 51 -4 78 -10 74 -5 -3 -10 -13 -10 -22 0 -16 -36 -53
-53 -53 -5 0 -7 -7 -4 -15 4 -8 2 -17 -3 -20 -6 -4 -10 -19 -10 -36 0 -16 -4
-29 -10 -29 -5 0 -10 -7 -10 -16 0 -9 -5 -12 -11 -8 -9 5 -10 -1 -5 -20 4 -15
2 -26 -3 -26 -6 0 -8 -6 -5 -13 2 -7 -4 -22 -16 -32 -11 -10 -20 -24 -20 -31
0 -18 -49 -74 -66 -74 -8 0 -15 -3 -15 -7 -1 -5 -3 -20 -5 -35 -1 -15 -9 -42
-18 -60 -8 -18 -27 -61 -42 -95 -16 -35 -33 -63 -39 -63 -5 0 -16 -9 -23 -20
-7 -11 -20 -20 -30 -20 -10 0 -24 -6 -30 -12 -10 -10 -17 -10 -32 0 -20 12
-25 6 -21 -20 0 -5 -3 -8 -9 -8 -5 0 -10 16 -10 35 0 37 -16 47 -27 18 -4 -10
-11 -21 -16 -24 -5 -4 -5 -9 2 -13 6 -4 11 -2 11 4 0 6 5 8 11 4 12 -7 -15
-28 -36 -29 -5 0 -20 -7 -33 -16 -18 -13 -24 -29 -28 -70 -2 -30 -14 -85 -27
-123 -20 -64 -25 -70 -60 -82 -33 -12 -41 -11 -54 1 -18 18 -49 20 -56 3 -4
-10 -8 -9 -16 2 -9 12 -11 11 -11 -9 0 -26 -46 -101 -61 -101 -5 0 -9 -6 -9
-13 0 -12 -33 -38 -60 -45 -8 -3 -40 -7 -70 -9 -58 -5 -91 -29 -67 -48 39 -33
36 -40 -14 -40 -27 0 -49 0 -49 -1 0 -8 85 -54 93 -51 7 2 21 -6 31 -18 13
-14 26 -20 39 -17 17 4 19 2 13 -14 -4 -10 -9 -28 -11 -39 -1 -11 -8 -33 -14
-49 -11 -27 -11 -28 15 -22 15 4 32 2 40 -5 17 -14 68 -1 147 38 26 13 54 22
62 21 7 -2 15 2 17 7 3 12 52 55 56 50 2 -2 -4 -17 -12 -34 -9 -17 -16 -34
-15 -38 0 -4 -8 -10 -18 -14 -16 -6 -15 -8 10 -19 15 -7 27 -17 27 -22 0 -23
39 16 45 44 25 113 46 158 108 225 34 38 77 86 95 108 30 36 30 35 -6 -20 -22
-34 -47 -67 -57 -75 -9 -7 -26 -32 -37 -54 -11 -23 -27 -48 -35 -58 -8 -9 -21
-42 -30 -74 -21 -82 -37 -109 -74 -124 -27 -12 -32 -11 -41 3 -9 17 -59 47
-77 47 -13 0 40 -56 59 -62 10 -3 7 -11 -15 -29 -16 -13 -60 -53 -98 -89 l-68
-66 78 1 c72 1 85 5 163 44 47 24 103 56 125 71 22 14 66 41 98 59 57 31 60
32 100 18 82 -27 179 0 322 88 77 47 563 271 785 361 85 34 154 68 152 74 -16
70 -33 261 -37 435 -1 72 -6 147 -10 168 -5 25 -3 42 5 52 19 23 -1 18 -42
-10 -20 -14 -45 -25 -56 -25 -28 0 -164 -85 -285 -180 -109 -85 -162 -144
-430 -474 -109 -134 -177 -207 -222 -238 -16 -12 -3 6 30 38 33 32 96 104 140
159 43 55 113 141 155 190 42 50 103 126 137 170 127 168 338 340 537 439
l126 62 0 -42 c0 -34 -4 -44 -20 -49 -13 -4 -17 -11 -13 -18 4 -7 11 -95 15
-197 4 -102 10 -250 14 -331 l7 -145 57 7 c71 8 138 44 147 78 5 22 2 36 -22
93 -5 13 4 22 42 41 26 13 73 32 103 42 112 36 150 68 150 126 0 33 -46 113
-80 137 -17 13 -47 47 -66 75 -105 158 -132 186 -183 187 -22 0 -100 19 -110
27 -2 1 8 12 23 24 14 11 35 38 46 59 19 38 19 38 252 115 252 84 349 124 387
158 32 30 73 124 73 167 -2 111 -133 299 -247 355 -32 15 -76 47 -98 71 -22
24 -54 49 -71 55 -17 7 -39 19 -48 27 -11 9 -47 17 -93 20 -54 3 -75 8 -75 18
0 8 -4 14 -9 14 -5 0 -12 8 -14 18 -4 13 -5 12 -6 -5 -1 -17 -6 -20 -23 -16
-19 4 -20 3 -8 -6 12 -9 11 -11 -7 -11 -13 0 -23 5 -23 10 0 6 -14 10 -31 10
-24 0 -30 -4 -25 -15 3 -8 1 -15 -4 -15 -6 0 -10 5 -10 10 0 6 -18 10 -41 10
-24 0 -38 4 -34 10 3 6 1 10 -4 10 -6 0 -12 -8 -13 -17 0 -10 -2 -22 -3 -28
-2 -5 -3 -14 -4 -18 0 -4 -11 -3 -22 4 -13 6 -19 7 -15 1 3 -6 0 -12 -6 -14
-10 -4 -10 -14 0 -53 7 -26 10 -50 7 -53 -2 -3 -19 -6 -37 -8 -44 -4 -78 -14
-78 -24 0 -5 -7 -16 -16 -24 -20 -21 -64 -21 -64 -1 0 8 -4 15 -9 15 -9 0 -38
-31 -33 -37 1 -1 2 -8 2 -14 0 -17 -28 8 -43 39 -6 14 -18 27 -24 30 -17 5
-17 -33 1 -47 17 -14 9 -61 -10 -61 -14 0 -28 25 -54 97 -7 18 -20 35 -30 38
-15 5 -17 16 -12 100 2 52 2 95 -2 95 -3 0 -6 -3 -6 -7z m185 -503 c8 -30 22
-68 30 -84 14 -25 14 -27 1 -17 -8 7 -27 48 -41 91 -14 43 -33 84 -41 90 -8 7
-14 18 -14 24 1 26 51 -54 65 -104z m-55 65 c14 -16 10 -18 -14 -9 -9 3 -16
10 -16 15 0 14 16 11 30 -6z m20 -46 c0 -5 -4 -9 -10 -9 -5 0 -10 7 -10 16 0
8 5 12 10 9 6 -3 10 -10 10 -16z m-426 -200 c-8 -24 -33 -120 -54 -214 -46
-204 -60 -259 -66 -252 -3 2 0 33 6 68 5 35 10 81 10 102 0 21 7 45 15 53 8 9
15 32 15 52 0 43 39 213 53 227 6 6 7 1 3 -15 -7 -25 -7 -25 11 2 24 37 26 29
7 -23z m-77 -101 c-3 -7 -5 -2 -5 12 0 14 2 19 5 13 2 -7 2 -19 0 -25z m80
-20 c-3 -8 -6 -5 -6 6 -1 11 2 17 5 13 3 -3 4 -12 1 -19z m651 -4 c15 -9 41
-34 57 -56 17 -22 42 -52 58 -66 15 -15 27 -33 27 -42 0 -9 -12 -2 -31 20 -17
19 -58 63 -92 98 -62 63 -67 75 -19 46z m-741 -51 c-3 -10 -5 -4 -5 12 0 17 2
24 5 18 2 -7 2 -21 0 -30z m313 -33 c-6 -11 -13 -20 -16 -20 -2 0 0 9 6 20 6
11 13 20 16 20 2 0 0 -9 -6 -20z m467 -34 c3 -23 0 -36 -6 -36 -17 0 -24 26
-17 56 9 33 17 26 23 -20z m-514 -3 c-6 -16 -5 -17 12 -3 24 19 22 16 -74
-125 -41 -60 -86 -127 -100 -147 -13 -21 -26 -36 -28 -34 -4 3 187 326 193
326 2 0 0 -8 -3 -17z m-193 -50 c0 -8 -4 -11 -10 -8 -9 6 -14 -8 -11 -29 1 -4
-3 -14 -9 -21 -6 -7 -10 -17 -8 -21 4 -12 -23 -107 -33 -118 -5 -6 -9 -18 -9
-28 0 -10 -4 -26 -9 -36 -21 -41 -69 -150 -82 -184 -7 -21 -17 -38 -22 -38 -4
0 -6 -4 -3 -9 3 -4 -22 -50 -55 -102 -60 -94 -100 -145 -62 -79 11 19 37 64
57 99 82 141 186 399 216 532 8 35 18 56 26 56 8 0 14 -7 14 -14z m483 -86
c-3 -20 -9 -34 -14 -31 -5 3 -9 3 -9 0 0 -2 -3 -13 -6 -23 -4 -13 -3 -15 4 -4
6 8 12 9 16 3 3 -6 -3 -14 -15 -17 -12 -4 -18 -13 -15 -20 3 -8 -2 -19 -11
-27 -14 -11 -15 -10 -9 12 6 22 5 23 -5 7 -6 -11 -12 -26 -13 -34 -1 -8 -9
-19 -17 -24 -8 -5 -10 -9 -5 -9 4 0 -20 -30 -55 -66 -35 -36 -65 -60 -67 -54
-7 21 211 340 224 327 2 -2 1 -20 -3 -40z m-412 -5 c-10 -18 -111 -184 -116
-190 -1 -2 -5 4 -9 13 -3 9 -2 13 4 10 5 -3 19 17 31 45 12 27 25 50 30 50 4
0 20 20 35 45 25 43 45 65 25 27z m427 -114 c-18 -32 -87 -105 -123 -131 l-30
-21 20 24 c11 14 37 43 57 65 20 22 46 53 58 68 26 33 37 30 18 -5z m-1132
-515 c-5 -11 -10 -13 -17 -6 -7 7 -7 17 3 32 10 18 14 19 16 6 2 -9 1 -23 -2
-32z m-288 -260 c-10 -2 -26 -2 -35 0 -10 3 -2 5 17 5 19 0 27 -2 18 -5z m332
-237 c-11 -26 -20 -60 -21 -74 0 -26 -17 -77 -18 -58 -1 6 -7 1 -15 -10 -13
-17 -14 -14 -5 24 11 50 67 178 74 170 3 -3 -4 -26 -15 -52z m-71 -78 c-21
-50 -39 -93 -39 -94 0 -2 -15 -13 -32 -25 l-33 -23 21 25 c12 13 43 66 68 117
25 50 48 92 50 92 3 0 -13 -41 -35 -92z m-114 6 c-8 -20 -15 -46 -16 -58 0
-20 -1 -20 -8 -1 -6 13 -2 33 10 58 25 47 34 48 14 1z m-35 -124 c0 -5 -2 -10
-4 -10 -3 0 -8 5 -11 10 -3 6 -1 10 4 10 6 0 11 -4 11 -10z"/>
<path d="M4266 2353 c-6 -14 -5 -15 5 -6 7 7 10 15 7 18 -3 3 -9 -2 -12 -12z"/>
<path d="M4990 3310 c0 -5 7 -10 16 -10 8 0 12 5 9 10 -3 6 -10 10 -16 10 -5
0 -9 -4 -9 -10z"/>
<path d="M1326 3265 c4 -16 7 -38 8 -47 0 -10 4 -18 8 -18 12 0 9 32 -8 65
l-14 30 6 -30z"/>
<path d="M1404 3265 c25 -19 92 -19 131 1 17 8 23 12 14 10 -50 -13 -108 -16
-134 -7 -28 10 -29 10 -11 -4z"/>
<path d="M4740 3240 c0 -5 4 -10 9 -10 6 0 13 5 16 10 3 6 -1 10 -9 10 -9 0
-16 -4 -16 -10z"/>
<path d="M2765 3220 c-4 -6 6 -10 24 -10 16 0 33 5 36 10 4 6 -6 10 -24 10
-16 0 -33 -4 -36 -10z"/>
<path d="M4749 3186 c-9 -9 2 -66 12 -66 5 0 9 8 8 18 -1 24 -14 54 -20 48z"/>
<path d="M4717 3173 c-4 -3 -7 -11 -7 -17 0 -6 5 -5 12 2 6 6 9 14 7 17 -3 3
-9 2 -12 -2z"/>
<path d="M2614 3097 c-33 -13 -75 -33 -91 -45 -17 -12 -34 -22 -38 -22 -3 0
-28 -18 -54 -40 -26 -22 -57 -40 -69 -40 -25 0 -62 -33 -62 -55 0 -9 -6 -18
-14 -21 -8 -3 -18 -19 -21 -35 -7 -31 13 -101 27 -93 4 3 8 -2 8 -10 0 -16 11
-20 39 -16 7 1 25 -10 40 -23 25 -24 117 -44 104 -23 -4 5 1 6 12 2 10 -4 21
-3 24 2 3 5 38 -3 76 -19 109 -43 141 -46 65 -5 -44 24 -58 35 -43 36 12 0 24
4 27 9 3 5 20 12 38 15 18 4 55 17 82 31 l48 23 -55 0 c-54 -1 -159 25 -186
46 -10 8 -15 8 -18 -1 -3 -7 -12 -13 -21 -13 -13 0 -12 3 4 15 23 18 66 19 82
3 10 -10 15 -10 22 2 7 10 10 11 10 3 0 -7 5 -13 10 -13 6 0 10 7 10 15 0 8 7
15 15 15 8 0 15 -7 15 -15 0 -23 18 -18 22 7 4 28 28 36 28 9 0 -12 5 -21 10
-21 6 0 10 8 10 19 0 30 23 43 47 26 20 -14 22 -13 25 7 2 15 11 24 25 26 14
2 23 11 25 25 3 20 8 22 58 20 43 -2 49 0 28 6 -45 15 -54 24 -32 31 10 4 25
3 32 -2 8 -7 12 -7 12 1 0 6 10 11 21 11 18 0 16 4 -15 25 -49 33 -93 56 -141
72 l-40 13 40 -5 c22 -3 66 -19 97 -35 31 -16 60 -26 62 -21 3 5 -22 23 -57
42 -58 31 -70 33 -172 36 -96 3 -118 0 -171 -20z m28 -20 c-38 -14 -96 -59
-117 -90 -12 -19 -65 -153 -65 -166 0 -2 9 -1 20 2 19 5 20 4 3 -24 -22 -37
-32 -36 -69 3 -18 20 -23 29 -12 25 25 -9 55 35 76 107 11 37 28 71 48 90 29
30 102 65 134 65 8 -1 0 -6 -18 -12z m34 -67 c1 -39 29 -79 66 -94 38 -16 27
-24 -50 -34 -141 -20 -193 60 -85 128 58 37 68 37 69 0z m230 6 c7 -19 -45
-92 -76 -106 -20 -9 -19 -6 7 15 24 19 35 38 39 66 7 39 20 51 30 25z m-59
-34 c-20 -22 -85 -44 -92 -32 -6 9 96 63 103 55 3 -3 -2 -13 -11 -23z m-107 8
c-8 -5 -22 -9 -30 -9 -10 0 -8 3 5 9 27 12 43 12 25 0z m-310 -115 c-6 -15
-13 -25 -17 -21 -3 3 0 17 7 31 17 32 24 26 10 -10z m119 -6 c-16 -9 -39 0
-39 15 0 23 13 26 32 9 13 -12 15 -19 7 -24z"/>
<path d="M1366 3075 c3 -22 7 -51 9 -63 2 -13 6 -26 9 -30 10 -10 6 32 -10 83
-13 45 -14 46 -8 10z"/>
<path d="M1447 3018 c-4 -29 -11 -54 -16 -56 -6 -2 -6 -15 0 -34 4 -17 7 -34
4 -37 -2 -4 5 -8 16 -8 13 -1 19 5 19 18 0 17 7 19 58 19 31 0 77 5 102 11 25
6 86 12 135 14 76 3 95 1 125 -17 l35 -20 -35 38 c-36 38 -34 38 33 10 20 -9
37 -14 37 -12 0 6 -132 89 -174 108 -41 20 -203 27 -191 9 8 -14 -30 -32 -76
-36 -35 -3 -41 -1 -49 21 -5 13 -11 24 -13 24 -2 0 -7 -24 -10 -52z m266 -45
c-7 -2 -21 -2 -30 0 -10 3 -4 5 12 5 17 0 24 -2 18 -5z m114 -9 c-3 -3 -12 -4
-19 -1 -8 3 -5 6 6 6 11 1 17 -2 13 -5z"/>
<path d="M1410 3018 c0 -27 5 -48 10 -48 13 0 13 60 0 80 -7 11 -10 2 -10 -32z"/>
<path d="M2050 2998 c0 -36 4 -35 14 5 4 16 2 27 -4 27 -5 0 -10 -14 -10 -32z"/>
<path d="M1390 2953 c0 -13 5 -23 10 -23 6 0 11 -10 11 -22 1 -17 3 -18 6 -6
2 9 -3 29 -11 45 -14 26 -15 27 -16 6z"/>
<path d="M1755 2886 c-91 -29 -146 -75 -150 -126 -4 -47 10 -44 49 10 39 54
66 75 110 86 25 6 28 5 22 -14 -10 -29 17 -87 49 -108 25 -16 26 -19 9 -25
-54 -22 -131 -2 -156 39 l-17 27 -13 -32 c-7 -18 -18 -33 -25 -33 -8 0 -13
-11 -12 -27 l0 -28 10 25 c6 15 13 20 17 14 31 -48 175 -43 292 9 52 23 110
31 110 15 0 -6 3 -9 6 -5 10 10 -43 114 -71 139 -53 46 -147 60 -230 34z m82
-82 c-3 -3 -12 -4 -19 -1 -8 3 -5 6 6 6 11 1 17 -2 13 -5z"/>
<path d="M2000 2896 c0 -2 7 -9 15 -16 9 -7 15 -8 15 -2 0 5 -7 12 -15 16 -8
3 -15 4 -15 2z"/>
<path d="M329 2838 c-8 -27 -5 -36 9 -30 10 4 12 7 4 10 -7 2 -10 8 -6 13 3 5
3 9 0 9 -3 0 -6 -1 -7 -2z"/>
<path d="M3720 2806 c0 -14 4 -27 9 -30 5 -3 9 6 9 19 0 14 -4 28 -9 31 -5 3
-9 -6 -9 -20z"/>
<path d="M2054 2807 c-2 -7 2 -29 11 -50 12 -28 14 -58 9 -140 -5 -69 -3 -110
4 -123 10 -17 11 -14 12 16 0 20 7 62 15 93 8 32 15 62 15 67 0 17 -18 11 -23
-7 -3 -10 -5 1 -6 23 0 23 -7 60 -15 82 -8 22 -12 43 -9 46 4 3 3 6 -1 6 -3 0
-9 -6 -12 -13z"/>
<path d="M320 2755 c-19 -10 -28 -11 -39 -2 -9 8 -8 3 3 -15 19 -29 18 -75 -2
-71 -14 3 -10 -57 7 -100 6 -16 11 -32 11 -36 0 -4 9 -17 20 -29 12 -12 18
-22 16 -22 -8 0 44 -80 97 -151 68 -89 94 -104 183 -102 l72 1 4 -127 c3 -107
7 -132 27 -169 34 -66 95 -127 192 -192 118 -79 155 -83 307 -38 l44 13 66
-73 c37 -39 79 -76 95 -82 41 -14 33 -25 -28 -39 -70 -16 -147 -82 -179 -155
-13 -28 -30 -57 -39 -65 -20 -16 -22 -67 -4 -98 6 -12 25 -46 40 -75 16 -29
47 -81 69 -116 27 -41 42 -78 46 -108 4 -35 14 -55 51 -96 101 -113 192 -115
371 -8 81 49 212 110 236 110 6 0 25 -18 42 -39 58 -72 125 -75 253 -11 32 17
60 30 63 30 6 0 15 -45 20 -98 5 -48 73 -176 116 -217 l28 -26 20 28 c10 15
31 52 46 81 32 63 84 123 134 154 19 12 30 24 24 26 -6 2 -27 18 -45 35 -19
18 -57 49 -85 71 -35 26 -80 81 -142 170 -131 190 -208 297 -237 330 -74 83
-155 191 -189 252 -118 215 -186 325 -226 368 -10 11 -18 24 -18 30 0 5 -3 7
-6 4 -3 -4 0 -17 7 -30 15 -27 19 -58 8 -58 -4 0 -12 7 -17 16 -8 15 -10 15
-15 0 -4 -10 -3 -15 3 -11 6 3 10 1 10 -4 0 -11 -11 -14 -27 -9 -5 2 -7 6 -6
10 5 13 -31 26 -72 26 -21 0 -41 5 -43 11 -5 14 -35 14 -48 1 -7 -7 -20 -6
-40 5 -34 17 -87 20 -115 4 -15 -8 -32 -6 -66 5 -26 9 -54 16 -64 16 -20 0
-64 -65 -54 -80 4 -6 1 -10 -6 -9 -8 1 -27 -4 -44 -11 -44 -18 -89 -19 -112
-1 -40 33 -83 104 -83 137 0 18 -4 43 -9 56 -14 35 -23 63 -19 63 1 0 -10 21
-25 47 -15 26 -27 52 -27 58 0 17 -36 61 -43 53 -4 -3 -9 1 -13 10 -4 11 -25
18 -62 23 -32 3 -65 11 -76 16 -13 7 -16 7 -12 -1 5 -7 -6 -11 -33 -11 -22 0
-43 4 -46 10 -3 6 1 7 12 4 10 -3 6 2 -9 10 -14 9 -41 37 -58 63 -18 26 -25
41 -16 34 10 -8 16 -9 16 -3 0 6 -4 14 -10 17 -5 3 -10 16 -10 28 0 16 -3 18
-9 9 -6 -10 -10 -8 -16 10 -4 12 -7 26 -6 31 1 4 -4 7 -10 7 -6 0 -8 9 -4 20
4 11 2 20 -4 20 -6 0 -11 7 -11 16 0 8 -4 13 -9 10 -5 -3 -9 0 -8 7 1 41 -2
43 -71 44 -39 1 -78 -5 -92 -12z m23 -23 c-21 -22 -49 -19 -30 4 7 7 20 13 30
14 16 0 16 -1 0 -18z m942 -702 c-3 -5 -11 -10 -16 -10 -6 0 -7 5 -4 10 3 6
11 10 16 10 6 0 7 -4 4 -10z"/>
<path d="M1949 2673 c-13 -15 -12 -15 11 -3 34 17 36 20 18 20 -9 0 -22 -7
-29 -17z"/>
<path d="M2047 2674 c-4 -4 -7 -17 -7 -28 0 -45 -23 -98 -60 -141 -21 -24 -42
-54 -45 -66 -9 -28 13 -43 39 -25 22 14 37 53 67 169 20 74 22 106 6 91z"/>
<path d="M1971 2622 c-30 -20 -49 -38 -42 -40 20 -7 113 60 100 72 -2 2 -28
-12 -58 -32z"/>
<path d="M3770 2653 c0 -4 5 -15 10 -23 8 -13 10 -13 10 2 0 9 -4 20 -10 23
-5 3 -10 3 -10 -2z"/>
<path d="M3781 2430 c0 -14 4 -34 9 -45 8 -18 9 -18 9 5 0 14 -4 34 -9 45 -8
18 -9 18 -9 -5z"/>
<path d="M3837 2383 c-3 -16 -1 -35 4 -43 6 -10 8 -2 9 28 0 48 -5 55 -13 15z"/>
<path d="M2071 2374 c0 -11 3 -14 6 -6 3 7 2 16 -1 19 -3 4 -6 -2 -5 -13z"/>
<path d="M2541 2319 c-25 -3 -47 -11 -49 -17 -2 -7 -12 -12 -22 -12 -21 0 -45
-26 -32 -34 6 -3 32 -1 58 5 63 14 92 14 118 0 26 -14 56 -65 56 -95 0 -31
-41 -73 -93 -96 -24 -11 -52 -28 -62 -40 -22 -24 -14 -25 25 -5 16 8 37 12 47
9 13 -4 14 -3 5 4 -10 7 -5 11 19 16 18 3 29 9 25 13 -3 4 5 18 18 32 59 64
101 190 58 177 -11 -4 -33 3 -53 17 -44 30 -64 34 -118 26z"/>
<path d="M2062 2300 c0 -14 2 -19 5 -12 2 6 2 18 0 25 -3 6 -5 1 -5 -13z"/>
<path d="M2065 2239 c5 -15 4 -19 -4 -15 -7 5 -11 -7 -11 -38 0 -50 9 -61 34
-43 13 10 15 22 10 59 -4 27 -13 49 -21 52 -11 5 -13 1 -8 -15z"/>
<path d="M2142 2185 c0 -16 2 -22 5 -12 2 9 2 23 0 30 -3 6 -5 -1 -5 -18z"/>
<path d="M1740 2151 c0 -6 4 -13 10 -16 6 -3 7 1 4 9 -7 18 -14 21 -14 7z"/>
<path d="M2420 2078 c-45 -13 -90 -45 -90 -65 0 -15 2 -15 18 -1 36 32 102 58
149 59 36 0 43 3 28 9 -26 11 -62 11 -105 -2z"/>
<path d="M2148 1973 c36 -32 38 -43 17 -103 -14 -39 -14 -45 2 -69 l16 -25 11
32 c15 43 26 31 15 -15 -4 -20 -5 -41 -2 -46 3 -5 30 -7 60 -3 42 5 64 2 101
-14 43 -18 173 -51 190 -49 48 8 50 -16 2 -26 -44 -10 -46 -25 -3 -18 31 5 36
3 25 -8 -15 -16 -69 -16 -137 0 -61 14 -195 5 -195 -14 0 -26 84 -157 114
-177 l31 -21 -32 34 c-28 30 -60 89 -48 89 3 0 24 -21 47 -46 37 -41 84 -74
104 -74 4 0 -12 14 -35 31 -63 45 -42 47 43 4 70 -36 77 -38 114 -27 22 7 60
12 84 12 25 0 64 7 87 15 42 14 120 64 121 76 0 4 28 59 62 123 59 112 80 141
58 80 -9 -27 -9 -28 5 -10 8 11 15 16 15 10 0 -5 5 -1 11 9 7 12 17 16 30 12
25 -8 24 7 -2 31 -19 17 -39 19 -166 20 -132 2 -150 0 -211 -23 -155 -59 -176
-64 -220 -58 -41 6 -50 25 -12 25 10 0 31 11 47 24 15 12 33 21 38 19 6 -2 21
6 33 17 11 11 26 20 32 20 5 0 10 4 10 9 0 5 -9 7 -20 4 -14 -4 -20 0 -20 11
0 25 -27 30 -56 11 -14 -9 -50 -19 -80 -22 -30 -3 -57 -10 -60 -14 -13 -21
-35 -5 -55 39 -12 26 -21 50 -20 55 1 8 -10 13 -119 53 l-65 24 33 -27z m165
-123 c3 -11 1 -18 -4 -14 -5 3 -9 12 -9 20 0 20 7 17 13 -6z m364 -186 c-27
-14 -56 -23 -65 -21 -11 3 -2 11 28 25 65 31 97 27 37 -4z m153 6 c0 -11 -40
-90 -46 -90 -3 0 -2 11 0 24 3 18 1 23 -10 19 -8 -3 -12 -9 -9 -13 3 -5 -4
-11 -15 -15 -22 -7 -28 -38 -7 -33 20 5 20 -10 0 -36 -21 -26 -128 -57 -195
-55 l-43 1 37 12 c50 15 68 33 48 47 -12 9 -12 10 3 5 16 -5 68 21 87 44 3 3
31 27 63 53 56 45 87 58 87 37z"/>
<path d="M4858 1503 c7 -3 16 -2 19 1 4 3 -2 6 -13 5 -11 0 -14 -3 -6 -6z"/>
<path d="M4861 1435 c1 -19 18 -51 18 -35 0 8 -4 22 -9 30 -5 8 -9 11 -9 5z"/>
<path d="M2720 1130 c0 -6 7 -10 15 -10 8 0 15 2 15 4 0 2 -7 6 -15 10 -8 3
-15 1 -15 -4z"/>
</g>
</svg>
